# xmcd
#
# Track frame offsets: 
#        150
#        18757
#        36922
#        50887
#        62947
#        78765
#        94567
#        108612
#        128467
#        144005
#        156310
#        172245
#        184907
#        197137
#
# Disc length: 2848 seconds
#
# Revision: 1
# Processed by: cddbd v1.5.2PL0 Copyright (c) Steve Scherf et al.
# Submitted via: ExactAudioCopyFreeDBPlugin 1.0
#
DISCID=bc0b1e0e
DTITLE=Sacha Distel - Feelings
DYEAR=1900
DGENRE=Misc
TTITLE0=Feelings
TTITLE1=How To Handle A Woman
TTITLE2=I Can't Live My Life Without You
TTITLE3=I Thought About You
TTITLE4=I Write The Songs
TTITLE5=If You Love Me (I Won't Care)
TTITLE6=Love Is All
TTITLE7=Madonna Louise
TTITLE8=Take A Look Around
TTITLE9=Tangerine
TTITLE10=There's A Whole Lot Of Loving
TTITLE11=We Can Work It Out
TTITLE12=What Am I
TTITLE13=What I Did For Love
EXTD=
EXTT0=
EXTT1=
EXTT2=
EXTT3=
EXTT4=
EXTT5=
EXTT6=
EXTT7=
EXTT8=
EXTT9=
EXTT10=
EXTT11=
EXTT12=
EXTT13=
PLAYORDER=
